<svg id="svg2" xmlns="http://www.w3.org/2000/svg" viewBox="0 0 361.19 171.94"><defs><style>.cls-1{fill:#0080c0;}</style></defs><g id="layer1"><g id="g4138"><path id="path1992" class="cls-1" d="M241,103.19h51.66l-.05,51.59-51.54,0L241,103.19m17.31,17.25-.06,17.1,17.09.06.07-17.1ZM51.79,103.19h51.65l0,51.59-51.54,0-.07-51.62M69.1,120.44,69,137.54l17.09.06.07-17.1ZM258.19,17.22l17.23,0,0,17.18-17.08-.12-.17-17.1Zm-223.52,0H51.85L51.7,34.32l-17.12.15ZM51.87,0l206.36,0,0,17.16-68.68.06,0,34.26,85.84,0,.07-17.07,17.16,0,.17,17.09,34.24.09.17,17.12,34.26.08-.05,51.53-51.48,0-.17-17.06-17.05-.1-.13-17.12-51.42.09-.11,17-17.07.13-.15,17H120.67l-.17-17.08-17-.1-.13-17.12-51.42.08-.1,17-17.08.13-.15,17.07-17.1,0-.17-17.08-17-.17,0-51.44,17.06-.17.17-17,17.07,0,.13,17.07,51.44-.08,0-34.2-34.28,0,0-17.2m51.61,17.2,0,34.3,68.71,0,0-34.3Z" transform="translate(-0.25 -0.04)"/><path id="path2010" d="M241,154.8l51.55,0-.05,17.2-51.5-.06V154.8Zm-189.24,0,51.55,0,0,17.2-51.5-.06V154.8Zm206.49-34.36,17.1.06-.07,17.1-17.1-.07ZM69,120.44l17.09.06-.06,17.1L69,137.53Zm223.58-17.25,17.06.11.17,17-.09,34.43H292.58l0-51.59Zm-68.73.13,17.08-.13L241,154.8l-17.2,0-.09-34.39.15-17.05Zm-120.51-.13,17.05.11.17,17.07-.08,34.41H103.33l0-51.59Zm-68.73.13,17.07-.13.07,51.61-17.21,0-.08-34.37.15-17.07ZM241.07,86.16l51.42-.09.13,17.12H241Zm-189.24,0,51.42-.09.13,17.12H51.72Z" transform="translate(-0.25 -0.04)"/></g></g></svg>