<svg width="87" height="88" viewBox="0 0 87 88" fill="none" xmlns="http://www.w3.org/2000/svg">
<path d="M20.5415 63.5586V30.5586H67.6665V63.5586H64.0415V67.2253H24.1665V63.5586H20.5415Z" fill="white"/>
<path d="M24.1666 67.224H20.5414L20.5415 63.5573H24.1664L24.1666 67.224Z" fill="black"/>
<path d="M67.6664 67.224H64.0414V63.5573H67.6664V67.224Z" fill="black"/>
<path d="M45.9164 52.5573H42.2914V48.8906H45.9164V52.5573Z" fill="black"/>
<path d="M42.2914 48.8906H38.6665V45.224H42.2914V48.8906Z" fill="black"/>
<path d="M38.6665 45.224H35.0416V41.5573H38.6666L38.6665 45.224Z" fill="black"/>
<path d="M49.5416 48.8906H45.9164V45.224H49.5416V48.8906Z" fill="black"/>
<path d="M53.1664 45.224H49.5416L49.5414 41.5573H53.1664V45.224Z" fill="black"/>
<path d="M16.9165 63.5573H20.5415L20.5414 30.5573H16.9165V63.5573Z" fill="black"/>
<path d="M45.9164 15.8906H42.2914L42.2915 26.8906H20.5414V30.5573H42.2915L42.2914 45.224H45.9164L45.9166 30.5573H67.6664V26.8906H45.9166L45.9164 15.8906Z" fill="black"/>
<path d="M71.2916 30.5573H67.6664V63.5573H71.2914L71.2916 30.5573Z" fill="black"/>
<path d="M24.1666 67.224V70.8906H64.0416L64.0414 67.224H24.1666Z" fill="black"/>
</svg>
