<svg width="88" height="88" viewBox="0 0 88 88" fill="none" xmlns="http://www.w3.org/2000/svg">
<path d="M24.4443 64.7786V24.4453H64.7777V64.7786H24.4443Z" fill="white"/>
<path d="M53.7778 35.444H50.1112V39.1107H53.7778V35.444Z" fill="black"/>
<path d="M53.7778 50.1107H50.1112V53.7773H53.7778V50.1107Z" fill="black"/>
<path d="M50.1112 39.1107H46.4445V42.7773H50.1112V39.1107Z" fill="black"/>
<path d="M50.1112 46.444H46.4445V50.1107H50.1112V46.444Z" fill="black"/>
<path d="M39.1112 35.444H35.4445V39.1107H39.1112V35.444Z" fill="black"/>
<path d="M39.1112 50.1107H35.4445V53.7773H39.1112V50.1107Z" fill="black"/>
<path d="M35.4445 31.7773H31.7778V35.444H35.4445V31.7773Z" fill="black"/>
<path d="M57.4445 31.7773H53.7778V35.444H57.4445V31.7773Z" fill="black"/>
<path d="M42.7778 46.444H39.1112V50.1107H42.7778V46.444Z" fill="black"/>
<path d="M42.7778 39.1107H39.1112V42.7773H42.7778V39.1107Z" fill="black"/>
<path d="M46.4445 42.7773H42.7778V46.444H46.4445V42.7773Z" fill="black"/>
<path d="M35.4445 53.7773H31.7778V57.444H35.4445V53.7773Z" fill="black"/>
<path d="M57.4445 53.7773H53.7778V57.444H57.4445V53.7773Z" fill="black"/>
<path d="M64.7778 24.444V20.7773H24.4445V24.444L64.7778 24.444Z" fill="black"/>
<path d="M20.7778 64.7773H24.4445V24.444H20.7778V64.7773Z" fill="black"/>
<path d="M64.7778 68.444V64.7773H24.4445V68.444H64.7778Z" fill="black"/>
<path d="M68.4445 24.444L64.7778 24.444V64.7773H68.4445V24.444Z" fill="black"/>
</svg>
