<?xml version="1.0" standalone="no"?>
<!DOCTYPE svg PUBLIC "-//W3C//DTD SVG 20010904//EN"
 "http://www.w3.org/TR/2001/REC-SVG-20010904/DTD/svg10.dtd">
<svg version="1.0" xmlns="http://www.w3.org/2000/svg"
 width="1200.000000pt" height="1200.000000pt" viewBox="0 0 1200.000000 1200.000000"
 preserveAspectRatio="xMidYMid meet">

<g transform="translate(0.000000,1200.000000) scale(0.100000,-0.100000)"
fill="#000000" stroke="none">
<path d="M5040 11280 l0 -240 -480 0 -480 0 0 -240 0 -240 -240 0 -240 0 0
-240 0 -240 -240 0 -240 0 0 -720 0 -720 -240 0 -240 0 0 -1920 0 -1920 240 0
240 0 0 240 0 240 240 0 240 0 0 240 0 240 240 0 240 0 0 -240 0 -240 240 0
240 0 0 -240 0 -240 480 0 480 0 0 480 0 480 480 0 480 0 0 -480 0 -480 480 0
480 0 0 240 0 240 240 0 240 0 0 240 0 240 240 0 240 0 0 -240 0 -240 240 0
240 0 0 -240 0 -240 240 0 240 0 0 2160 0 2160 -240 0 -240 0 0 480 0 480
-240 0 -240 0 0 240 0 240 -240 0 -240 0 0 240 0 240 -480 0 -480 0 0 240 0
240 -960 0 -960 0 0 -240z m960 -1920 l0 -240 240 0 240 0 0 -240 0 -240 -480
0 -480 0 0 -480 0 -480 240 0 240 0 0 -240 0 -240 -480 0 -480 0 0 240 0 240
-240 0 -240 0 0 720 0 720 240 0 240 0 0 240 0 240 480 0 480 0 0 -240z m2400
0 l0 -240 240 0 240 0 0 -240 0 -240 -480 0 -480 0 0 -480 0 -480 240 0 240 0
0 -240 0 -240 -480 0 -480 0 0 240 0 240 -240 0 -240 0 0 720 0 720 240 0 240
0 0 240 0 240 480 0 480 0 0 -240z"/>
</g>
</svg>
