<svg id="Layer_1" data-name="Layer 1" xmlns="http://www.w3.org/2000/svg" viewBox="0 0 1726 82.16"><defs><style>.cls-1{fill:#1e2635;}</style></defs><path class="cls-1" d="M96.5,523.5c19.84-13.9,50.16-30.45,88-32,44-1.8,64.87,18,110,26,55.54,9.82,73.57-11.4,134-18C545,486.77,577.42,537.19,687,529c83.45-6.24,66.64-28.12,153.5-39.5,120.3-15.76,147.36,60.24,270,50,101.08-8.44,114.33-62.71,194-50,86.89,13.86,103,61,178.5,67.5,91.34,7.88,115.92-66.91,209.5-61.5,56.27,3.25,100.55,41,130,74" transform="translate(-96.5 -487.34)"/></svg>