<svg width="48" height="45" viewBox="0 0 48 45" fill="none" xmlns="http://www.w3.org/2000/svg">
<path d="M34 30.8893V40.8893H30.6667V37.556H20.6667H17.3333V27.556H10.6667V24.2227H4V20.8893H10.6667V17.556H17.3333V14.2227H24V10.8893H30.6667V7.55599H37.3333V4.22266H44V10.8893H40.6667V20.8893H37.3333V30.8893H34Z" fill="white"/>
<path d="M0.666504 20.8906H3.99984V24.224H0.666504V20.8906Z" fill="black"/>
<path d="M30.6665 40.8906H33.9998V44.224H30.6665V40.8906Z" fill="black"/>
<path d="M27.3332 37.5573H30.6665V40.8906H27.3332V37.5573Z" fill="black"/>
<path d="M20.6665 24.224H23.9998V27.5573H20.6665V24.224Z" fill="black"/>
<path d="M23.9998 20.8906H27.3332V24.224H23.9998V20.8906Z" fill="black"/>
<path d="M27.3332 17.5573H30.6665V20.8906H27.3332V17.5573Z" fill="black"/>
<path d="M30.6665 14.224H33.9998V17.5573H30.6665V14.224Z" fill="black"/>
<path d="M33.9998 10.8906H37.3332V14.224H33.9998V10.8906Z" fill="black"/>
<path d="M37.3332 7.55729H40.6665V10.8906H37.3332V7.55729Z" fill="black"/>
<path d="M3.99984 17.5573V20.8906H10.6665V17.5573H3.99984Z" fill="black"/>
<path d="M10.6665 27.5573V24.224H3.99984V27.5573H10.6665Z" fill="black"/>
<path d="M20.6665 37.5573H17.3332V30.8906H20.6665V27.5573H10.6665V30.8906H13.9998V44.224H17.3332V40.8906H20.6665V37.5573Z" fill="black"/>
<path d="M27.3332 34.224H23.9998V30.8906H20.6665V37.5573H27.3332V34.224Z" fill="black"/>
<path d="M37.3332 30.8906H33.9998V40.8906H37.3332V30.8906Z" fill="black"/>
<path d="M40.6665 20.8906H37.3332V30.8906H40.6665V20.8906Z" fill="black"/>
<path d="M10.6665 14.224V17.5573H17.3332V14.224H10.6665Z" fill="black"/>
<path d="M17.3332 10.8906V14.224H23.9998V10.8906H17.3332Z" fill="black"/>
<path d="M23.9998 7.55729V10.8906H30.6665V7.55729H23.9998Z" fill="black"/>
<path d="M37.3332 7.55729V4.22396H30.6665V7.55729H37.3332Z" fill="black"/>
<path d="M37.3332 0.890625V4.22396H43.9998V0.890625H37.3332Z" fill="black"/>
<path d="M47.3332 4.22396H43.9998V10.8906H47.3332V4.22396Z" fill="black"/>
<path d="M43.9998 10.8906H40.6665V20.8906H43.9998V10.8906Z" fill="black"/>
</svg>
