<svg id="Layer_1" data-name="Layer 1" xmlns="http://www.w3.org/2000/svg" viewBox="0 0 58.33 58.33"><defs><style>.cls-1{fill:#fff;}</style></defs><path class="cls-1" d="M41.67,4.17h-25V8.33H8.33v8.34H4.17v25H8.33V50h8.34v4.17h25V50H50V41.67h4.17v-25H50V8.33H41.67Z"/><path d="M16.67,37.5h4.16v4.17H16.67Z"/><path d="M41.67,37.5H37.5v4.17h4.17Z"/><path d="M16.67,16.67h4.16v4.16H16.67Z"/><path d="M41.67,16.67H37.5v4.16h4.17Z"/><path d="M20.83,20.83H25V25H20.83Z"/><path d="M37.5,20.83H33.33V25H37.5Z"/><path d="M12.5,20.83h4.17V25H12.5Z"/><path d="M45.83,20.83H41.67V25h4.16Z"/><path d="M16.67,54.17v4.16h25V54.17Z"/><path d="M37.5,45.83V41.67H20.83v4.16Z"/><path d="M8.33,50v4.17h8.34V50Z"/><path d="M8.33,41.67H4.17V50H8.33Z"/><path d="M0,41.67H4.17v-25H0Z"/><path d="M4.17,16.67H8.33V8.33H4.17Z"/><path d="M8.33,4.17V8.33h8.34V4.17Z"/><path d="M16.67,0V4.17h25V0Z"/><path d="M50,8.33V4.17H41.67V8.33Z"/><path d="M50,16.67h4.17V8.33H50Z"/><path d="M54.17,41.67h4.16v-25H54.17Z"/><path d="M54.17,41.67H50V50h4.17Z"/><path d="M50,54.17V50H41.67v4.17Z"/></svg>